<svg xmlns="http://www.w3.org/2000/svg" width="50" height="50" x="0" y="0" viewBox="0 0 172 172" style="fill:#4a5568"><g fill="none" fill-rule="nonzero" stroke="none" stroke-dashoffset="0" stroke-linecap="butt" stroke-linejoin="miter" stroke-miterlimit="10" stroke-width="1" font-family="none" font-size="none" font-weight="none" text-anchor="none" style="mix-blend-mode:normal"><path fill="none" d="M0,172v-172h172v172z"/><g fill="#000"><path d="M120.26563,10.25281c-1.78719,0.05375 -3.48031,0.80625 -4.73,2.08281l-68.8,68.8c-2.6875,2.6875 -2.6875,7.04125 0,9.72875l68.8,68.8c1.72,1.80062 4.28656,2.52625 6.70531,1.89469c2.40531,-0.63156 4.28656,-2.51281 4.91813,-4.91813c0.63156,-2.41875 -0.09406,-4.98531 -1.89469,-6.70531l-63.93563,-63.93563l63.93563,-63.93562c2.02906,-1.97531 2.64719,-4.99875 1.54531,-7.61906c-1.11531,-2.60688 -3.70875,-4.27313 -6.54406,-4.1925z"/></g></g></svg>